<svg width="28" height="28" viewBox="0 0 28 28" fill="none" xmlns="http://www.w3.org/2000/svg">
<path d="M23.8161 25.8609C23.9233 25.6945 23.9604 25.4924 23.9193 25.2988C23.8782 25.1052 23.7622 24.9357 23.5966 24.8273C22.7857 24.301 21.8447 23.6848 20.8332 22.9895C21.2271 21.4072 21.4813 19.7934 21.5928 18.1666C21.7549 15.2923 21.2621 12.9818 20.126 11.1682C17.9142 7.66449 13.6997 6.8037 10.3089 6.10949C8.22389 5.6841 6.25731 5.28792 5.4525 4.38654C5.3578 4.28112 5.23517 4.20473 5.09883 4.16622C4.96249 4.1277 4.81803 4.12864 4.6822 4.16893C4.54637 4.20922 4.42474 4.28721 4.33141 4.39385C4.23808 4.50049 4.17688 4.63142 4.1549 4.77144C4.06183 5.22424 2.59795 15.6167 8.09179 21.0774C10.8001 23.7606 14.6994 24.7538 19.6942 24.0216C20.8192 24.8359 21.8627 25.4955 22.783 26.0805C22.9492 26.1877 23.1512 26.2248 23.3447 26.1837C23.5383 26.1426 23.7077 26.0265 23.8161 25.8609ZM9.13473 20.0174C5.25315 16.1793 5.34087 9.16343 5.50288 6.28913C6.93943 6.92235 8.4548 7.35884 10.008 7.5868C13.2804 8.25182 16.9829 9.00866 18.8575 11.9677C20.2901 14.2486 20.501 17.5644 19.5051 22.0511C15.5669 19.2161 11.1242 15.3464 9.74544 10.9135C9.6782 10.7343 9.545 10.5876 9.37315 10.5035C9.20129 10.4194 9.00378 10.4043 8.82112 10.4612C8.63845 10.5181 8.48446 10.6428 8.3907 10.8096C8.29694 10.9765 8.27052 11.1729 8.31685 11.3586C9.73211 15.9437 13.9504 19.8008 17.8618 22.7094C14.1402 22.9577 11.2188 22.0572 9.15012 20.0108L9.13473 20.0174Z" fill="#359740"/>
</svg>
